# Blender 5.0.0
# www.blender.org
o Cylinder
v -0.000000 0.521234 -0.150000
v 0.000000 0.554176 0.150000
v 0.101688 0.511218 -0.150000
v 0.108114 0.543528 0.150000
v 0.199468 0.481557 -0.150000
v 0.212074 0.511992 0.150000
v 0.289582 0.433390 -0.150000
v 0.307884 0.460781 0.150000
v 0.368568 0.368568 -0.150000
v 0.391862 0.391862 0.150000
v 0.433390 0.289582 -0.150000
v 0.460781 0.307884 0.150000
v 0.481557 0.199468 -0.150000
v 0.511992 0.212074 0.150000
v 0.511218 0.101688 -0.150000
v 0.543528 0.108114 0.150000
v 0.521234 -0.000000 -0.150000
v 0.554176 0.000000 0.150000
v 0.511218 -0.101688 -0.150000
v 0.543528 -0.108114 0.150000
v 0.481557 -0.199468 -0.150000
v 0.511992 -0.212074 0.150000
v 0.433390 -0.289582 -0.150000
v 0.460781 -0.307884 0.150000
v 0.368568 -0.368568 -0.150000
v 0.391862 -0.391862 0.150000
v 0.289582 -0.433390 -0.150000
v 0.307884 -0.460781 0.150000
v 0.199468 -0.481557 -0.150000
v 0.212074 -0.511992 0.150000
v 0.101688 -0.511218 -0.150000
v 0.108114 -0.543528 0.150000
v -0.000000 -0.521234 -0.150000
v 0.000000 -0.554176 0.150000
v -0.101688 -0.511218 -0.150000
v -0.108114 -0.543528 0.150000
v -0.199468 -0.481557 -0.150000
v -0.212074 -0.511992 0.150000
v -0.289582 -0.433390 -0.150000
v -0.307884 -0.460781 0.150000
v -0.368568 -0.368568 -0.150000
v -0.391862 -0.391862 0.150000
v -0.433390 -0.289582 -0.150000
v -0.460781 -0.307884 0.150000
v -0.481557 -0.199468 -0.150000
v -0.511992 -0.212074 0.150000
v -0.511218 -0.101688 -0.150000
v -0.543528 -0.108114 0.150000
v -0.521234 -0.000000 -0.150000
v -0.554176 0.000000 0.150000
v -0.511218 0.101688 -0.150000
v -0.543528 0.108114 0.150000
v -0.481557 0.199468 -0.150000
v -0.511992 0.212074 0.150000
v -0.433390 0.289582 -0.150000
v -0.460781 0.307884 0.150000
v -0.368568 0.368568 -0.150000
v -0.391862 0.391862 0.150000
v -0.289582 0.433390 -0.150000
v -0.307884 0.460781 0.150000
v -0.199468 0.481557 -0.150000
v -0.212074 0.511992 0.150000
v -0.101688 0.511218 -0.150000
v -0.108114 0.543528 0.150000
v 0.117054 0.588471 0.150000
v 0.000000 0.600000 0.150000
v 0.229610 0.554328 0.150000
v 0.333342 0.498882 0.150000
v 0.424264 0.424264 0.150000
v 0.498882 0.333342 0.150000
v 0.554328 0.229610 0.150000
v 0.588471 0.117054 0.150000
v 0.600000 0.000000 0.150000
v 0.588471 -0.117054 0.150000
v 0.554328 -0.229610 0.150000
v 0.498882 -0.333342 0.150000
v 0.424264 -0.424264 0.150000
v 0.333342 -0.498882 0.150000
v 0.229610 -0.554328 0.150000
v 0.117054 -0.588471 0.150000
v 0.000000 -0.600000 0.150000
v -0.117054 -0.588471 0.150000
v -0.229610 -0.554328 0.150000
v -0.333342 -0.498882 0.150000
v -0.424264 -0.424264 0.150000
v -0.498882 -0.333342 0.150000
v -0.554328 -0.229610 0.150000
v -0.588471 -0.117054 0.150000
v -0.600000 0.000000 0.150000
v -0.588471 0.117054 0.150000
v -0.554328 0.229610 0.150000
v -0.498882 0.333342 0.150000
v -0.424264 0.424264 0.150000
v -0.333342 0.498882 0.150000
v -0.229610 0.554328 0.150000
v -0.117054 0.588471 0.150000
v 0.108114 0.543528 -0.023227
v -0.000000 0.554176 -0.023227
v 0.212074 0.511992 -0.023227
v 0.307884 0.460781 -0.023227
v 0.391862 0.391862 -0.023227
v 0.460781 0.307884 -0.023227
v 0.511992 0.212074 -0.023227
v 0.543528 0.108114 -0.023227
v 0.554176 0.000000 -0.023227
v 0.543528 -0.108114 -0.023227
v 0.511992 -0.212074 -0.023227
v 0.460781 -0.307884 -0.023227
v 0.391862 -0.391862 -0.023227
v 0.307884 -0.460781 -0.023227
v 0.212074 -0.511992 -0.023227
v 0.108114 -0.543528 -0.023227
v -0.000000 -0.554176 -0.023227
v -0.108114 -0.543528 -0.023227
v -0.212074 -0.511992 -0.023227
v -0.307884 -0.460781 -0.023227
v -0.391862 -0.391862 -0.023227
v -0.460781 -0.307884 -0.023227
v -0.511992 -0.212074 -0.023227
v -0.543528 -0.108114 -0.023227
v -0.554176 0.000000 -0.023227
v -0.543528 0.108114 -0.023227
v -0.511992 0.212074 -0.023227
v -0.460781 0.307884 -0.023227
v -0.391862 0.391862 -0.023227
v -0.307884 0.460781 -0.023227
v -0.212074 0.511992 -0.023227
v -0.108114 0.543528 -0.023227
vn -0.0000 0.9672 -0.2539
vn 0.1887 0.9486 -0.2539
vn 0.3701 0.8936 -0.2539
vn 0.5374 0.8042 -0.2539
vn 0.6839 0.6839 -0.2539
vn 0.8042 0.5374 -0.2539
vn 0.8936 0.3701 -0.2539
vn 0.9486 0.1887 -0.2539
vn 0.9672 -0.0000 -0.2539
vn 0.9486 -0.1887 -0.2539
vn 0.8936 -0.3701 -0.2539
vn 0.8042 -0.5374 -0.2539
vn 0.6839 -0.6839 -0.2539
vn 0.5374 -0.8042 -0.2539
vn 0.3701 -0.8936 -0.2539
vn 0.1887 -0.9486 -0.2539
vn -0.0000 -0.9672 -0.2539
vn -0.1887 -0.9486 -0.2539
vn -0.3701 -0.8936 -0.2539
vn -0.5374 -0.8042 -0.2539
vn -0.6839 -0.6839 -0.2539
vn -0.8042 -0.5374 -0.2539
vn -0.8936 -0.3701 -0.2539
vn -0.9486 -0.1887 -0.2539
vn -0.9672 -0.0000 -0.2539
vn -0.9486 0.1887 -0.2539
vn -0.8936 0.3701 -0.2539
vn -0.8042 0.5374 -0.2539
vn -0.6839 0.6839 -0.2539
vn -0.5374 0.8042 -0.2539
vn -0.3701 0.8936 -0.2539
vn -0.3827 0.9239 -0.0000
vn -0.1951 0.9808 -0.0000
vn -0.1887 0.9486 -0.2539
vn -0.0000 -0.0000 -1.0000
vn -0.0000 -0.0000 1.0000
vn -0.1951 -0.9808 -0.0000
vn -0.3827 -0.9239 -0.0000
vn 0.7071 -0.7071 -0.0000
vn 0.5556 -0.8315 -0.0000
vn -0.0000 1.0000 -0.0000
vn -0.5556 -0.8315 -0.0000
vn 0.3827 -0.9239 -0.0000
vn 0.1951 0.9808 -0.0000
vn -0.7071 -0.7071 -0.0000
vn 0.1951 -0.9808 -0.0000
vn 0.3827 0.9239 -0.0000
vn -0.8315 -0.5556 -0.0000
vn -0.0000 -1.0000 -0.0000
vn 0.5556 0.8315 -0.0000
vn -0.9239 -0.3827 -0.0000
vn 0.7071 0.7071 -0.0000
vn -0.9808 -0.1951 -0.0000
vn 0.8315 0.5556 -0.0000
vn -1.0000 -0.0000 -0.0000
vn 0.9239 0.3827 -0.0000
vn -0.9808 0.1951 -0.0000
vn 0.9808 0.1951 -0.0000
vn -0.9239 0.3827 -0.0000
vn 1.0000 -0.0000 -0.0000
vn -0.8315 0.5556 -0.0000
vn 0.9808 -0.1951 -0.0000
vn -0.7071 0.7071 -0.0000
vn 0.9239 -0.3827 -0.0000
vn -0.5556 0.8315 -0.0000
vn 0.8315 -0.5556 -0.0000
vt 1.000000 0.500000
vt 0.968750 1.000000
vt 0.968750 0.500000
vt 0.937500 0.500000
vt 0.937500 1.000000
vt 0.906250 0.500000
vt 0.906250 1.000000
vt 0.875000 0.500000
vt 0.875000 1.000000
vt 0.843750 0.500000
vt 0.843750 1.000000
vt 0.812500 0.500000
vt 0.812500 1.000000
vt 0.781250 0.500000
vt 0.781250 1.000000
vt 0.750000 0.500000
vt 0.718750 1.000000
vt 0.718750 0.500000
vt 0.687500 0.500000
vt 0.687500 1.000000
vt 0.656250 0.500000
vt 0.656250 1.000000
vt 0.625000 0.500000
vt 0.625000 1.000000
vt 0.593750 0.500000
vt 0.593750 1.000000
vt 0.562500 0.500000
vt 0.562500 1.000000
vt 0.531250 0.500000
vt 0.531250 1.000000
vt 0.500000 0.500000
vt 0.468750 1.000000
vt 0.468750 0.500000
vt 0.437500 0.500000
vt 0.437500 1.000000
vt 0.406250 0.500000
vt 0.406250 1.000000
vt 0.375000 0.500000
vt 0.375000 1.000000
vt 0.343750 0.500000
vt 0.343750 1.000000
vt 0.312500 0.500000
vt 0.312500 1.000000
vt 0.281250 0.500000
vt 0.281250 1.000000
vt 0.250000 0.500000
vt 0.218750 1.000000
vt 0.218750 0.500000
vt 0.187500 0.500000
vt 0.187500 1.000000
vt 0.156250 0.500000
vt 0.156250 1.000000
vt 0.125000 0.500000
vt 0.125000 1.000000
vt 0.093750 0.500000
vt 0.093750 1.000000
vt 0.062500 0.500000
vt 0.334830 0.045203
vt 0.293246 0.032589
vt 0.062500 1.000000
vt 0.031250 0.500000
vt 0.031250 1.000000
vt 0.000000 0.500000
vt 0.796822 0.014612
vt 0.514612 0.203178
vt 0.703178 0.485388
vt 0.250000 0.471670
vt 0.296822 0.485388
vt 0.250000 0.490000
vt 0.334830 0.454797
vt 0.293246 0.467411
vt 0.373153 0.434312
vt 0.341844 0.471731
vt 0.419706 0.419706
vt 0.383337 0.449553
vt 0.434312 0.373153
vt 0.406745 0.406745
vt 0.471731 0.341844
vt 0.449553 0.383337
vt 0.454797 0.334830
vt 0.485388 0.296822
vt 0.471670 0.250000
vt 0.467411 0.293246
vt 0.485388 0.203178
vt 0.490000 0.250000
vt 0.454797 0.165170
vt 0.467411 0.206754
vt 0.434312 0.126847
vt 0.471731 0.158156
vt 0.419706 0.080294
vt 0.449553 0.116663
vt 0.373153 0.065688
vt 0.406745 0.093255
vt 0.341844 0.028269
vt 0.383337 0.050447
vt 0.296822 0.014612
vt 0.250000 0.028330
vt 0.203178 0.014612
vt 0.250000 0.010000
vt 0.165170 0.045203
vt 0.206754 0.032589
vt 0.126847 0.065688
vt 0.158156 0.028269
vt 0.080294 0.080294
vt 0.116663 0.050447
vt 0.065688 0.126847
vt 0.093255 0.093255
vt 0.028269 0.158156
vt 0.050447 0.116663
vt 0.045203 0.165170
vt 0.014612 0.203178
vt 0.028330 0.250000
vt 0.032589 0.206754
vt 0.014612 0.296822
vt 0.010000 0.250000
vt 0.045203 0.334830
vt 0.032589 0.293246
vt 0.065688 0.373153
vt 0.028269 0.341844
vt 0.080294 0.419706
vt 0.050447 0.383337
vt 0.126847 0.434312
vt 0.093255 0.406745
vt 0.158156 0.471731
vt 0.116663 0.449553
vt 0.165170 0.454797
vt 0.203178 0.485388
vt 0.206754 0.467411
vt 1.000000 1.000000
vt 0.750000 1.000000
vt 0.500000 1.000000
vt 0.250000 1.000000
vt 0.000000 1.000000
vt 0.750000 0.490000
vt 0.796822 0.485388
vt 0.841844 0.471731
vt 0.883337 0.449553
vt 0.919706 0.419706
vt 0.949553 0.383337
vt 0.971731 0.341844
vt 0.985388 0.296822
vt 0.990000 0.250000
vt 0.985388 0.203178
vt 0.971731 0.158156
vt 0.949553 0.116663
vt 0.919706 0.080294
vt 0.883337 0.050447
vt 0.841844 0.028269
vt 0.750000 0.010000
vt 0.703178 0.014612
vt 0.658156 0.028269
vt 0.616663 0.050447
vt 0.580294 0.080294
vt 0.550447 0.116663
vt 0.528269 0.158156
vt 0.510000 0.250000
vt 0.514612 0.296822
vt 0.528269 0.341844
vt 0.550447 0.383337
vt 0.580294 0.419706
vt 0.616663 0.449553
vt 0.658156 0.471731
s 1
f 1/1/1 65/2/2 3/3/2
f 65/2/2 5/4/3 3/3/2
f 67/5/3 7/6/4 5/4/3
f 68/7/4 9/8/5 7/6/4
f 69/9/5 11/10/6 9/8/5
f 70/11/6 13/12/7 11/10/6
f 71/13/7 15/14/8 13/12/7
f 72/15/8 17/16/9 15/14/8
f 17/16/9 74/17/10 19/18/10
f 74/17/10 21/19/11 19/18/10
f 75/20/11 23/21/12 21/19/11
f 76/22/12 25/23/13 23/21/12
f 77/24/13 27/25/14 25/23/13
f 78/26/14 29/27/15 27/25/14
f 79/28/15 31/29/16 29/27/15
f 80/30/16 33/31/17 31/29/16
f 33/31/17 82/32/18 35/33/18
f 82/32/18 37/34/19 35/33/18
f 83/35/19 39/36/20 37/34/19
f 84/37/20 41/38/21 39/36/20
f 85/39/21 43/40/22 41/38/21
f 86/41/22 45/42/23 43/40/22
f 87/43/23 47/44/24 45/42/23
f 88/45/24 49/46/25 47/44/24
f 49/46/25 90/47/26 51/48/26
f 90/47/26 53/49/27 51/48/26
f 91/50/27 55/51/28 53/49/27
f 92/52/28 57/53/29 55/51/28
f 93/54/29 59/55/30 57/53/29
f 94/56/30 61/57/31 59/55/30
f 30/58/32 112/59/33 32/59/33
f 95/60/31 63/61/34 61/57/31
f 96/62/34 1/63/1 63/61/34
f 31/64/35 47/65/35 63/66/35
f 2/67/36 65/68/36 66/69/36
f 6/70/36 65/68/36 4/71/36
f 8/72/36 67/73/36 6/70/36
f 8/72/36 69/74/36 68/75/36
f 12/76/36 69/74/36 10/77/36
f 12/76/36 71/78/36 70/79/36
f 14/80/36 72/81/36 71/78/36
f 18/82/36 72/81/36 16/83/36
f 18/82/36 74/84/36 73/85/36
f 22/86/36 74/84/36 20/87/36
f 24/88/36 75/89/36 22/86/36
f 24/88/36 77/90/36 76/91/36
f 28/92/36 77/90/36 26/93/36
f 28/92/36 79/94/36 78/95/36
f 30/58/36 80/96/36 79/94/36
f 34/97/36 80/96/36 32/59/36
f 34/97/36 82/98/36 81/99/36
f 38/100/36 82/98/36 36/101/36
f 40/102/36 83/103/36 38/100/36
f 40/102/36 85/104/36 84/105/36
f 44/106/36 85/104/36 42/107/36
f 44/106/36 87/108/36 86/109/36
f 46/110/36 88/111/36 87/108/36
f 50/112/36 88/111/36 48/113/36
f 50/112/36 90/114/36 89/115/36
f 54/116/36 90/114/36 52/117/36
f 56/118/36 91/119/36 54/116/36
f 56/118/36 93/120/36 92/121/36
f 60/122/36 93/120/36 58/123/36
f 60/122/36 95/124/36 94/125/36
f 62/126/36 96/127/36 95/124/36
f 2/67/36 96/127/36 64/128/36
f 115/100/36 107/86/36 99/70/36
f 4/71/37 99/70/38 6/70/38
f 58/123/39 126/122/40 60/122/40
f 32/59/33 113/97/41 34/97/41
f 6/70/38 100/72/42 8/72/42
f 60/122/40 127/126/43 62/126/43
f 34/97/41 114/101/44 36/101/44
f 8/72/42 101/77/45 10/77/45
f 62/126/43 128/128/46 64/128/46
f 36/101/44 115/100/47 38/100/47
f 10/77/45 102/76/48 12/76/48
f 64/128/46 98/67/49 2/67/49
f 38/100/47 116/102/50 40/102/50
f 12/76/48 103/80/51 14/80/51
f 40/102/50 117/107/52 42/107/52
f 14/80/51 104/83/53 16/83/53
f 42/107/52 118/106/54 44/106/54
f 16/83/53 105/82/55 18/82/55
f 44/106/54 119/110/56 46/110/56
f 18/82/55 106/87/57 20/87/57
f 46/110/56 120/113/58 48/113/58
f 20/87/57 107/86/59 22/86/59
f 48/113/58 121/112/60 50/112/60
f 22/86/59 108/88/61 24/88/61
f 50/112/60 122/117/62 52/117/62
f 24/88/61 109/93/63 26/93/63
f 52/117/62 123/116/64 54/116/64
f 26/93/63 110/92/65 28/92/65
f 54/116/64 124/118/66 56/118/66
f 28/92/65 111/58/32 30/58/32
f 2/67/49 97/71/37 4/71/37
f 56/118/66 125/123/39 58/123/39
f 1/1/1 66/129/1 65/2/2
f 65/2/2 67/5/3 5/4/3
f 67/5/3 68/7/4 7/6/4
f 68/7/4 69/9/5 9/8/5
f 69/9/5 70/11/6 11/10/6
f 70/11/6 71/13/7 13/12/7
f 71/13/7 72/15/8 15/14/8
f 72/15/8 73/130/9 17/16/9
f 17/16/9 73/130/9 74/17/10
f 74/17/10 75/20/11 21/19/11
f 75/20/11 76/22/12 23/21/12
f 76/22/12 77/24/13 25/23/13
f 77/24/13 78/26/14 27/25/14
f 78/26/14 79/28/15 29/27/15
f 79/28/15 80/30/16 31/29/16
f 80/30/16 81/131/17 33/31/17
f 33/31/17 81/131/17 82/32/18
f 82/32/18 83/35/19 37/34/19
f 83/35/19 84/37/20 39/36/20
f 84/37/20 85/39/21 41/38/21
f 85/39/21 86/41/22 43/40/22
f 86/41/22 87/43/23 45/42/23
f 87/43/23 88/45/24 47/44/24
f 88/45/24 89/132/25 49/46/25
f 49/46/25 89/132/25 90/47/26
f 90/47/26 91/50/27 53/49/27
f 91/50/27 92/52/28 55/51/28
f 92/52/28 93/54/29 57/53/29
f 93/54/29 94/56/30 59/55/30
f 94/56/30 95/60/31 61/57/31
f 30/58/32 111/58/32 112/59/33
f 95/60/31 96/62/34 63/61/34
f 96/62/34 66/133/1 1/63/1
f 63/66/35 1/134/35 3/135/35
f 3/135/35 5/136/35 7/137/35
f 7/137/35 9/138/35 11/139/35
f 11/139/35 13/140/35 15/141/35
f 15/141/35 17/142/35 19/143/35
f 19/143/35 21/144/35 23/145/35
f 23/145/35 25/146/35 27/147/35
f 27/147/35 29/148/35 31/64/35
f 31/64/35 33/149/35 35/150/35
f 35/150/35 37/151/35 39/152/35
f 39/152/35 41/153/35 43/154/35
f 43/154/35 45/155/35 47/65/35
f 47/65/35 49/156/35 51/157/35
f 51/157/35 53/158/35 55/159/35
f 55/159/35 57/160/35 59/161/35
f 59/161/35 61/162/35 63/66/35
f 63/66/35 3/135/35 7/137/35
f 7/137/35 11/139/35 15/141/35
f 15/141/35 19/143/35 23/145/35
f 23/145/35 27/147/35 31/64/35
f 31/64/35 35/150/35 39/152/35
f 39/152/35 43/154/35 47/65/35
f 47/65/35 51/157/35 55/159/35
f 55/159/35 59/161/35 63/66/35
f 63/66/35 7/137/35 15/141/35
f 15/141/35 23/145/35 31/64/35
f 31/64/35 39/152/35 47/65/35
f 47/65/35 55/159/35 63/66/35
f 63/66/35 15/141/35 31/64/35
f 2/67/36 4/71/36 65/68/36
f 6/70/36 67/73/36 65/68/36
f 8/72/36 68/75/36 67/73/36
f 8/72/36 10/77/36 69/74/36
f 12/76/36 70/79/36 69/74/36
f 12/76/36 14/80/36 71/78/36
f 14/80/36 16/83/36 72/81/36
f 18/82/36 73/85/36 72/81/36
f 18/82/36 20/87/36 74/84/36
f 22/86/36 75/89/36 74/84/36
f 24/88/36 76/91/36 75/89/36
f 24/88/36 26/93/36 77/90/36
f 28/92/36 78/95/36 77/90/36
f 28/92/36 30/58/36 79/94/36
f 30/58/36 32/59/36 80/96/36
f 34/97/36 81/99/36 80/96/36
f 34/97/36 36/101/36 82/98/36
f 38/100/36 83/103/36 82/98/36
f 40/102/36 84/105/36 83/103/36
f 40/102/36 42/107/36 85/104/36
f 44/106/36 86/109/36 85/104/36
f 44/106/36 46/110/36 87/108/36
f 46/110/36 48/113/36 88/111/36
f 50/112/36 89/115/36 88/111/36
f 50/112/36 52/117/36 90/114/36
f 54/116/36 91/119/36 90/114/36
f 56/118/36 92/121/36 91/119/36
f 56/118/36 58/123/36 93/120/36
f 60/122/36 94/125/36 93/120/36
f 60/122/36 62/126/36 95/124/36
f 62/126/36 64/128/36 96/127/36
f 2/67/36 66/69/36 96/127/36
f 99/70/36 97/71/36 98/67/36
f 98/67/36 128/128/36 127/126/36
f 127/126/36 126/122/36 125/123/36
f 125/123/36 124/118/36 123/116/36
f 123/116/36 122/117/36 121/112/36
f 121/112/36 120/113/36 119/110/36
f 119/110/36 118/106/36 117/107/36
f 117/107/36 116/102/36 115/100/36
f 115/100/36 114/101/36 113/97/36
f 113/97/36 112/59/36 111/58/36
f 111/58/36 110/92/36 109/93/36
f 109/93/36 108/88/36 107/86/36
f 107/86/36 106/87/36 105/82/36
f 105/82/36 104/83/36 103/80/36
f 103/80/36 102/76/36 101/77/36
f 101/77/36 100/72/36 99/70/36
f 99/70/36 98/67/36 127/126/36
f 127/126/36 125/123/36 123/116/36
f 123/116/36 121/112/36 119/110/36
f 119/110/36 117/107/36 115/100/36
f 115/100/36 113/97/36 111/58/36
f 111/58/36 109/93/36 107/86/36
f 107/86/36 105/82/36 103/80/36
f 103/80/36 101/77/36 99/70/36
f 99/70/36 127/126/36 123/116/36
f 123/116/36 119/110/36 115/100/36
f 115/100/36 111/58/36 107/86/36
f 107/86/36 103/80/36 99/70/36
f 99/70/36 123/116/36 115/100/36
f 4/71/37 97/71/37 99/70/38
f 58/123/39 125/123/39 126/122/40
f 32/59/33 112/59/33 113/97/41
f 6/70/38 99/70/38 100/72/42
f 60/122/40 126/122/40 127/126/43
f 34/97/41 113/97/41 114/101/44
f 8/72/42 100/72/42 101/77/45
f 62/126/43 127/126/43 128/128/46
f 36/101/44 114/101/44 115/100/47
f 10/77/45 101/77/45 102/76/48
f 64/128/46 128/128/46 98/67/49
f 38/100/47 115/100/47 116/102/50
f 12/76/48 102/76/48 103/80/51
f 40/102/50 116/102/50 117/107/52
f 14/80/51 103/80/51 104/83/53
f 42/107/52 117/107/52 118/106/54
f 16/83/53 104/83/53 105/82/55
f 44/106/54 118/106/54 119/110/56
f 18/82/55 105/82/55 106/87/57
f 46/110/56 119/110/56 120/113/58
f 20/87/57 106/87/57 107/86/59
f 48/113/58 120/113/58 121/112/60
f 22/86/59 107/86/59 108/88/61
f 50/112/60 121/112/60 122/117/62
f 24/88/61 108/88/61 109/93/63
f 52/117/62 122/117/62 123/116/64
f 26/93/63 109/93/63 110/92/65
f 54/116/64 123/116/64 124/118/66
f 28/92/65 110/92/65 111/58/32
f 2/67/49 98/67/49 97/71/37
f 56/118/66 124/118/66 125/123/39
