# Blender 4.5.3 LTS
# www.blender.org
o PileSubCyl3
v -27.598076 -1.500004 -6.000000
v -27.598076 -1.500004 6.000000
v -27.840792 -0.964322 -6.000000
v -27.840792 -0.964322 6.000000
v -27.974337 -0.391582 -6.000000
v -27.974337 -0.391582 6.000000
v -27.993576 0.196205 -6.000000
v -27.993576 0.196205 6.000000
v -27.897779 0.776454 -6.000000
v -27.897779 0.776454 6.000000
v -27.690620 1.326862 -6.000000
v -27.690620 1.326862 6.000000
v -27.380062 1.826281 -6.000000
v -27.380062 1.826281 6.000000
v -26.978039 2.255516 -6.000000
v -26.978039 2.255516 6.000000
v -26.500000 2.598073 -6.000000
v -26.500000 2.598073 6.000000
v -25.964321 2.840787 -6.000000
v -25.964321 2.840787 6.000000
v -25.391581 2.974331 -6.000000
v -25.391581 2.974331 6.000000
v -24.803793 2.993573 -6.000000
v -24.803793 2.993573 6.000000
v -24.223545 2.897774 -6.000000
v -24.223545 2.897774 6.000000
v -23.673134 2.690615 -6.000000
v -23.673134 2.690615 6.000000
v -23.173717 2.380056 -6.000000
v -23.173717 2.380056 6.000000
v -22.744482 1.978034 -6.000000
v -22.744482 1.978034 6.000000
v -22.401924 1.499996 -6.000000
v -22.401924 1.499996 6.000000
v -22.159210 0.964315 -6.000000
v -22.159210 0.964315 6.000000
v -22.025667 0.391575 -6.000000
v -22.025667 0.391575 6.000000
v -22.006424 -0.196212 -6.000000
v -22.006424 -0.196212 6.000000
v -22.102224 -0.776461 -6.000000
v -22.102224 -0.776461 6.000000
v -22.309383 -1.326869 -6.000000
v -22.309383 -1.326869 6.000000
v -22.619942 -1.826288 -6.000000
v -22.619942 -1.826288 6.000000
v -23.021963 -2.255523 -6.000000
v -23.021963 -2.255523 6.000000
v -23.500000 -2.598080 -6.000000
v -23.500000 -2.598080 6.000000
v -24.035683 -2.840794 -6.000000
v -24.035683 -2.840794 6.000000
v -24.608423 -2.974339 -6.000000
v -24.608423 -2.974339 6.000000
v -25.196211 -2.993580 -6.000000
v -25.196211 -2.993580 6.000000
v -25.776459 -2.897780 -6.000000
v -25.776459 -2.897780 6.000000
v -26.326866 -2.690621 -6.000000
v -26.326866 -2.690621 6.000000
v -26.826286 -2.380064 -6.000000
v -26.826286 -2.380064 6.000000
v -27.255520 -1.978041 -6.000000
v -27.255520 -1.978041 6.000000
v -27.598076 -1.500004 0.000000
v -27.840792 -0.964322 0.000000
v -27.974337 -0.391582 0.000000
v -27.993576 0.196205 0.000000
v -27.897779 0.776454 0.000000
v -27.690620 1.326862 0.000000
v -27.380062 1.826281 0.000000
v -26.978039 2.255516 0.000000
v -26.500000 2.598073 0.000000
v -25.964321 2.840787 0.000000
v -25.391581 2.974331 0.000000
v -24.803793 2.993573 0.000000
v -24.223545 2.897774 0.000000
v -23.673134 2.690615 0.000000
v -23.173717 2.380056 0.000000
v -22.744482 1.978034 0.000000
v -22.401924 1.499996 0.000000
v -22.159210 0.964315 0.000000
v -22.025667 0.391575 0.000000
v -22.006424 -0.196212 0.000000
v -22.102224 -0.776461 0.000000
v -22.309383 -1.326869 0.000000
v -22.619942 -1.826288 0.000000
v -23.021963 -2.255523 0.000000
v -23.500000 -2.598080 0.000000
v -24.035683 -2.840794 0.000000
v -24.608423 -2.974339 0.000000
v -25.196211 -2.993580 0.000000
v -25.776459 -2.897780 0.000000
v -26.326866 -2.690621 0.000000
v -26.826286 -2.380064 0.000000
v -27.255520 -1.978041 0.000000
v -27.598076 -1.500004 3.000000
v -27.840792 -0.964322 3.000000
v -27.974337 -0.391582 3.000000
v -27.993576 0.196205 3.000000
v -27.897779 0.776454 3.000000
v -27.690620 1.326862 3.000000
v -27.380062 1.826281 3.000000
v -26.978039 2.255516 3.000000
v -26.500000 2.598073 3.000000
v -25.964321 2.840787 3.000000
v -25.391581 2.974331 3.000000
v -24.803793 2.993573 3.000000
v -24.223545 2.897774 3.000000
v -23.673134 2.690615 3.000000
v -23.173717 2.380056 3.000000
v -22.744482 1.978034 3.000000
v -22.401924 1.499996 3.000000
v -22.159210 0.964315 3.000000
v -22.025667 0.391575 3.000000
v -22.006424 -0.196212 3.000000
v -22.102224 -0.776461 3.000000
v -22.309383 -1.326869 3.000000
v -22.619942 -1.826288 3.000000
v -23.021963 -2.255523 3.000000
v -23.500000 -2.598080 3.000000
v -24.035683 -2.840794 3.000000
v -24.608423 -2.974339 3.000000
v -25.196211 -2.993580 3.000000
v -25.776459 -2.897780 3.000000
v -26.326866 -2.690621 3.000000
v -26.826286 -2.380064 3.000000
v -27.255520 -1.978041 3.000000
v -27.840792 -0.964322 -3.000000
v -27.974337 -0.391582 -3.000000
v -27.993576 0.196205 -3.000000
v -27.897779 0.776454 -3.000000
v -27.690620 1.326862 -3.000000
v -27.380062 1.826281 -3.000000
v -26.978039 2.255516 -3.000000
v -26.500000 2.598073 -3.000000
v -25.964321 2.840787 -3.000000
v -25.391581 2.974331 -3.000000
v -24.803793 2.993573 -3.000000
v -24.223545 2.897774 -3.000000
v -23.673134 2.690615 -3.000000
v -23.173717 2.380056 -3.000000
v -22.744482 1.978034 -3.000000
v -22.401924 1.499996 -3.000000
v -22.159210 0.964315 -3.000000
v -22.025667 0.391575 -3.000000
v -22.006424 -0.196212 -3.000000
v -22.102224 -0.776461 -3.000000
v -22.309383 -1.326869 -3.000000
v -22.619942 -1.826288 -3.000000
v -23.021963 -2.255523 -3.000000
v -23.500000 -2.598080 -3.000000
v -24.035683 -2.840794 -3.000000
v -24.608423 -2.974339 -3.000000
v -25.196211 -2.993580 -3.000000
v -25.776459 -2.897780 -3.000000
v -26.326866 -2.690621 -3.000000
v -26.826286 -2.380064 -3.000000
v -27.255520 -1.978041 -3.000000
v -27.598076 -1.500004 -3.000000
vn -0.9109 -0.4127 -0.0000
vn -0.9739 -0.2271 -0.0000
vn -0.9995 -0.0327 -0.0000
vn -0.9866 0.1629 -0.0000
vn -0.9359 0.3522 -0.0000
vn -0.8492 0.5281 -0.0000
vn -0.7299 0.6836 -0.0000
vn -0.5825 0.8128 -0.0000
vn -0.4127 0.9109 -0.0000
vn -0.2271 0.9739 -0.0000
vn -0.0327 0.9995 -0.0000
vn 0.1629 0.9866 -0.0000
vn 0.3522 0.9359 -0.0000
vn 0.5281 0.8492 -0.0000
vn 0.6836 0.7299 -0.0000
vn 0.8128 0.5825 -0.0000
vn 0.9109 0.4127 -0.0000
vn 0.9739 0.2271 -0.0000
vn 0.9995 0.0327 -0.0000
vn 0.9866 -0.1629 -0.0000
vn 0.9359 -0.3523 -0.0000
vn 0.8492 -0.5281 -0.0000
vn 0.7299 -0.6836 -0.0000
vn 0.5825 -0.8128 -0.0000
vn 0.4127 -0.9109 -0.0000
vn 0.2271 -0.9739 -0.0000
vn 0.0327 -0.9995 -0.0000
vn -0.1629 -0.9866 -0.0000
vn -0.3522 -0.9359 -0.0000
vn -0.5281 -0.8492 -0.0000
vn -0.0000 -0.0000 1.0000
vn -0.6836 -0.7299 -0.0000
vn -0.8128 -0.5825 -0.0000
vn -0.0000 -0.0000 -1.0000
vn 0.3523 0.9359 -0.0000
vn 0.9359 -0.3522 -0.0000
vn -0.3523 -0.9359 -0.0000
vt 0.414214 0.000000
vt 0.443061 0.104054
vt 0.414214 0.104054
vt 0.443061 0.000000
vt 0.476982 0.104054
vt 0.476982 0.000000
vt 0.514673 0.104054
vt 0.514673 0.000000
vt 0.554686 0.104054
vt 0.554686 0.000000
vt 0.595482 0.104054
vt 0.595482 0.000000
vt 0.635495 0.104054
vt 0.635495 0.000000
vt 0.673186 0.104054
vt 0.673186 0.000000
vt 0.707107 0.104054
vt 0.414214 0.416218
vt 0.443061 0.520272
vt 0.414214 0.520272
vt 0.443061 0.416218
vt 0.476982 0.520272
vt 0.476982 0.416218
vt 0.514673 0.520272
vt 0.514673 0.416218
vt 0.554686 0.520272
vt 0.554686 0.416218
vt 0.595482 0.520272
vt 0.595482 0.416218
vt 0.635495 0.520272
vt 0.635495 0.416218
vt 0.673186 0.520272
vt 0.673186 0.416218
vt 0.707107 0.520272
vt 0.707107 0.000000
vt 0.735954 0.104054
vt 0.735954 0.000000
vt 0.769875 0.104054
vt 0.769875 0.000000
vt 0.807566 0.104054
vt 0.807566 0.000000
vt 0.847579 0.104054
vt 0.847579 0.000000
vt 0.888375 0.104054
vt 0.888375 0.000000
vt 0.928388 0.104054
vt 0.928388 0.000000
vt 0.966079 0.104054
vt 0.966079 0.000000
vt 1.000000 0.104054
vt 0.707107 0.416218
vt 0.735954 0.520272
vt 0.707107 0.520272
vt 0.735954 0.416218
vt 0.769875 0.520272
vt 0.769875 0.416218
vt 0.807566 0.520272
vt 0.807566 0.416218
vt 0.847579 0.520272
vt 0.847579 0.416218
vt 0.888375 0.520272
vt 0.888375 0.416218
vt 0.928388 0.520272
vt 0.305209 0.023571
vt 0.390642 0.305209
vt 0.109005 0.390642
vt 0.928388 0.416218
vt 0.966079 0.520272
vt 0.966079 0.416218
vt 1.000000 0.520272
vt 0.339130 0.460450
vt 0.367977 0.753343
vt 0.075084 0.782191
vt 0.966079 0.624327
vt 1.000000 0.728381
vt 0.966079 0.728381
vt 0.928388 0.624327
vt 0.928388 0.728381
vt 0.888375 0.624327
vt 0.888375 0.728381
vt 0.847579 0.624327
vt 0.847579 0.728381
vt 0.807566 0.624327
vt 0.807566 0.728381
vt 0.769875 0.624327
vt 0.769875 0.728381
vt 0.735954 0.624327
vt 0.735954 0.728381
vt 0.707107 0.624327
vt 0.707107 0.728381
vt 0.966079 0.208109
vt 1.000000 0.312163
vt 0.966079 0.312163
vt 0.928388 0.208109
vt 0.928388 0.312163
vt 0.888375 0.208109
vt 0.888375 0.312163
vt 0.847579 0.208109
vt 0.847579 0.312163
vt 0.807566 0.208109
vt 0.807566 0.312163
vt 0.769875 0.208109
vt 0.769875 0.312163
vt 0.735954 0.208109
vt 0.735954 0.312163
vt 0.707107 0.208109
vt 0.707107 0.312163
vt 0.673186 0.624327
vt 0.707107 0.728381
vt 0.673186 0.728381
vt 0.635495 0.624327
vt 0.635495 0.728381
vt 0.595482 0.624327
vt 0.595482 0.728381
vt 0.554686 0.624327
vt 0.554686 0.728381
vt 0.514673 0.624327
vt 0.514673 0.728381
vt 0.476982 0.624327
vt 0.476982 0.728381
vt 0.443061 0.624327
vt 0.443061 0.728381
vt 0.414214 0.624327
vt 0.414214 0.728381
vt 0.673186 0.208109
vt 0.673186 0.312163
vt 0.635495 0.208109
vt 0.635495 0.312163
vt 0.595482 0.208109
vt 0.595482 0.312163
vt 0.554686 0.208109
vt 0.554686 0.312163
vt 0.514673 0.208109
vt 0.514673 0.312163
vt 0.476982 0.208109
vt 0.476982 0.312163
vt 0.443061 0.208109
vt 0.443061 0.312163
vt 0.414214 0.208109
vt 0.414214 0.312163
vt 1.000000 0.624327
vt 1.000000 0.208109
vt 0.707107 0.624327
vt 0.443061 0.416218
vt 0.476982 0.416218
vt 0.554686 0.416218
vt 0.595482 0.416218
vt 0.635495 0.416218
vt 0.707107 0.416218
vt 0.443061 0.832436
vt 0.414214 0.832436
vt 0.476982 0.832436
vt 0.514673 0.832436
vt 0.554686 0.832436
vt 0.595482 0.832436
vt 0.635495 0.832436
vt 0.673186 0.832436
vt 0.707107 0.832436
vt 0.735954 0.416218
vt 0.769875 0.416218
vt 0.807566 0.416218
vt 0.847579 0.416218
vt 0.888375 0.416218
vt 0.928388 0.416218
vt 0.966079 0.416218
vt 1.000000 0.416218
vt 0.735954 0.832436
vt 0.707107 0.832436
vt 0.769875 0.832436
vt 0.807566 0.832436
vt 0.847579 0.832436
vt 0.888375 0.832436
vt 0.928388 0.832436
vt 0.966079 0.832436
vt 1.000000 0.832436
vt 0.707107 0.416218
vt 1.000000 0.000000
vt 0.075084 0.367977
vt 0.046236 0.339130
vt 0.023571 0.305209
vt 0.007959 0.267518
vt -0.000000 0.227505
vt -0.000000 0.186709
vt 0.007959 0.146696
vt 0.023571 0.109005
vt 0.046236 0.075084
vt 0.075084 0.046236
vt 0.109005 0.023571
vt 0.146696 0.007959
vt 0.186709 -0.000000
vt 0.227505 -0.000000
vt 0.267518 0.007959
vt 0.339130 0.046236
vt 0.406255 0.146696
vt 0.367977 0.075084
vt 0.390642 0.109005
vt 0.414214 0.186709
vt 0.414214 0.227505
vt 0.406255 0.267518
vt 0.367977 0.339130
vt 0.267518 0.406255
vt 0.339130 0.367977
vt 0.305209 0.390642
vt 0.227505 0.414214
vt 0.186709 0.414214
vt 0.146696 0.406255
vt 1.000000 0.416218
vt 0.046236 0.753343
vt 0.023571 0.719422
vt 0.007959 0.681731
vt 0.000000 0.641719
vt 0.000000 0.600922
vt 0.007959 0.560910
vt 0.023571 0.523219
vt 0.046236 0.489298
vt 0.075084 0.460450
vt 0.109005 0.437785
vt 0.146696 0.422173
vt 0.186709 0.414214
vt 0.227505 0.414214
vt 0.267518 0.422173
vt 0.305209 0.437785
vt 0.367977 0.489298
vt 0.390642 0.523219
vt 0.406255 0.560910
vt 0.414214 0.600922
vt 0.414214 0.641719
vt 0.406255 0.681731
vt 0.390642 0.719422
vt 0.339130 0.782191
vt 0.305209 0.804856
vt 0.267518 0.820468
vt 0.227505 0.828427
vt 0.186709 0.828427
vt 0.146696 0.820468
vt 0.109005 0.804856
s 0
f 2/1/1 98/2/1 97/3/1
f 4/4/2 99/5/2 98/2/2
f 6/6/3 100/7/3 99/5/3
f 8/8/4 101/9/4 100/7/4
f 10/10/5 102/11/5 101/9/5
f 12/12/6 103/13/6 102/11/6
f 14/14/7 104/15/7 103/13/7
f 16/16/8 105/17/8 104/15/8
f 18/18/9 106/19/9 105/20/9
f 20/21/10 107/22/10 106/19/10
f 22/23/11 108/24/11 107/22/11
f 24/25/12 109/26/12 108/24/12
f 26/27/13 110/28/13 109/26/13
f 28/29/14 111/30/14 110/28/14
f 30/31/15 112/32/15 111/30/15
f 32/33/16 113/34/16 112/32/16
f 34/35/17 114/36/17 113/17/17
f 36/37/18 115/38/18 114/36/18
f 38/39/19 116/40/19 115/38/19
f 40/41/20 117/42/20 116/40/20
f 42/43/21 118/44/21 117/42/21
f 44/45/22 119/46/22 118/44/22
f 46/47/23 120/48/23 119/46/23
f 48/49/24 121/50/24 120/48/24
f 50/51/25 122/52/25 121/53/25
f 52/54/26 123/55/26 122/52/26
f 54/56/27 124/57/27 123/55/27
f 56/58/28 125/59/28 124/57/28
f 58/60/29 126/61/29 125/59/29
f 60/62/30 127/63/30 126/61/30
f 38/64/31 22/65/31 6/66/31
f 62/67/32 128/68/32 127/63/32
f 64/69/33 97/70/33 128/68/33
f 31/71/34 47/72/34 63/73/34
f 96/74/33 160/75/33 159/76/33
f 95/77/32 159/76/32 158/78/32
f 94/79/30 158/78/30 157/80/30
f 93/81/29 157/80/29 156/82/29
f 92/83/28 156/82/28 155/84/28
f 91/85/27 155/84/27 154/86/27
f 90/87/26 154/86/26 153/88/26
f 89/89/25 153/88/25 152/90/25
f 88/91/24 152/92/24 151/93/24
f 87/94/23 151/93/23 150/95/23
f 86/96/22 150/95/22 149/97/22
f 85/98/21 149/97/21 148/99/21
f 84/100/20 148/99/20 147/101/20
f 83/102/19 147/101/19 146/103/19
f 82/104/18 146/103/18 145/105/18
f 81/106/17 145/105/17 144/107/17
f 80/108/16 144/109/16 143/110/16
f 79/111/15 143/110/15 142/112/15
f 78/113/14 142/112/14 141/114/14
f 77/115/13 141/114/13 140/116/13
f 76/117/12 140/116/12 139/118/12
f 75/119/11 139/118/11 138/120/11
f 74/121/10 138/120/10 137/122/10
f 73/123/9 137/122/9 136/124/9
f 72/125/8 136/107/8 135/126/8
f 71/127/7 135/126/7 134/128/7
f 70/129/6 134/128/6 133/130/6
f 69/131/5 133/130/5 132/132/5
f 68/133/4 132/132/4 131/134/4
f 67/135/3 131/134/3 130/136/3
f 66/137/2 130/136/2 129/138/2
f 65/139/1 129/138/1 160/140/1
f 128/68/33 65/141/33 96/74/33
f 127/63/32 96/74/32 95/77/32
f 126/61/30 95/77/30 94/79/30
f 125/59/29 94/79/29 93/81/29
f 124/57/28 93/81/28 92/83/28
f 123/55/27 92/83/27 91/85/27
f 122/52/26 91/85/26 90/87/26
f 121/53/25 90/87/25 89/89/25
f 120/48/24 89/142/24 88/91/24
f 119/46/23 88/91/23 87/94/23
f 118/44/22 87/94/22 86/96/22
f 117/42/21 86/96/21 85/98/21
f 116/40/20 85/98/20 84/100/20
f 115/38/19 84/100/19 83/102/19
f 114/36/18 83/102/18 82/104/18
f 113/17/17 82/104/17 81/106/17
f 112/32/16 81/143/16 80/108/16
f 111/30/15 80/108/15 79/111/15
f 110/28/14 79/111/14 78/113/14
f 109/26/13 78/113/13 77/115/13
f 108/24/12 77/115/12 76/117/12
f 107/22/11 76/117/11 75/119/11
f 106/19/10 75/119/10 74/121/10
f 105/20/9 74/121/9 73/123/9
f 104/15/8 73/106/8 72/125/8
f 103/13/7 72/125/7 71/127/7
f 102/11/6 71/127/6 70/129/6
f 101/9/5 70/129/5 69/131/5
f 100/7/4 69/131/4 68/133/4
f 99/5/3 68/133/3 67/135/3
f 98/2/2 67/135/2 66/137/2
f 97/3/1 66/137/1 65/139/1
f 160/140/1 3/144/1 1/18/1
f 129/138/2 5/145/2 3/144/2
f 130/136/3 7/25/3 5/145/3
f 131/134/4 9/146/4 7/25/4
f 132/132/5 11/147/5 9/146/5
f 133/130/6 13/148/6 11/147/6
f 134/128/7 15/33/7 13/148/7
f 135/126/8 17/149/8 15/33/8
f 136/124/9 19/150/9 17/151/9
f 137/122/10 21/152/10 19/150/10
f 138/120/11 23/153/11 21/152/11
f 139/118/12 25/154/12 23/153/12
f 140/116/13 27/155/13 25/154/13
f 141/114/14 29/156/14 27/155/14
f 142/112/15 31/157/15 29/156/15
f 143/110/16 33/158/16 31/157/16
f 144/107/17 35/159/17 33/149/17
f 145/105/18 37/160/18 35/159/18
f 146/103/19 39/161/19 37/160/19
f 147/101/20 41/162/20 39/161/20
f 148/99/21 43/163/21 41/162/21
f 149/97/22 45/164/22 43/163/22
f 150/95/23 47/165/23 45/164/23
f 151/93/24 49/166/24 47/165/24
f 152/90/25 51/167/25 49/168/25
f 153/88/26 53/169/26 51/167/26
f 154/86/27 55/170/27 53/169/27
f 155/84/28 57/171/28 55/170/28
f 156/82/29 59/172/29 57/171/29
f 157/80/30 61/173/30 59/172/30
f 158/78/32 63/174/32 61/173/32
f 159/76/33 1/175/33 63/174/33
f 2/1/1 4/4/1 98/2/1
f 4/4/2 6/6/2 99/5/2
f 6/6/3 8/8/3 100/7/3
f 8/8/4 10/10/4 101/9/4
f 10/10/5 12/12/5 102/11/5
f 12/12/6 14/14/6 103/13/6
f 14/14/7 16/16/7 104/15/7
f 16/16/8 18/35/8 105/17/8
f 18/18/9 20/21/9 106/19/9
f 20/21/10 22/23/10 107/22/10
f 22/23/11 24/25/11 108/24/11
f 24/25/12 26/27/12 109/26/12
f 26/27/35 28/29/35 110/28/35
f 28/29/14 30/31/14 111/30/14
f 30/31/15 32/33/15 112/32/15
f 32/33/16 34/176/16 113/34/16
f 34/35/17 36/37/17 114/36/17
f 36/37/18 38/39/18 115/38/18
f 38/39/19 40/41/19 116/40/19
f 40/41/20 42/43/20 117/42/20
f 42/43/36 44/45/36 118/44/36
f 44/45/22 46/47/22 119/46/22
f 46/47/23 48/49/23 120/48/23
f 48/49/24 50/177/24 121/50/24
f 50/51/25 52/54/25 122/52/25
f 52/54/26 54/56/26 123/55/26
f 54/56/27 56/58/27 124/57/27
f 56/58/28 58/60/28 125/59/28
f 58/60/37 60/62/37 126/61/37
f 60/62/30 62/67/30 127/63/30
f 6/66/31 4/178/31 2/179/31
f 2/179/31 64/180/31 6/66/31
f 64/180/31 62/181/31 6/66/31
f 62/181/31 60/182/31 58/183/31
f 58/183/31 56/184/31 54/185/31
f 54/185/31 52/186/31 50/187/31
f 50/187/31 48/188/31 54/185/31
f 48/188/31 46/189/31 54/185/31
f 46/189/31 44/190/31 42/191/31
f 42/191/31 40/192/31 38/64/31
f 38/64/31 36/193/31 30/194/31
f 36/193/31 34/195/31 30/194/31
f 34/195/31 32/196/31 30/194/31
f 30/194/31 28/197/31 26/198/31
f 26/198/31 24/199/31 22/65/31
f 22/65/31 20/200/31 14/201/31
f 20/200/31 18/202/31 14/201/31
f 18/202/31 16/203/31 14/201/31
f 14/201/31 12/204/31 10/205/31
f 10/205/31 8/206/31 6/66/31
f 62/181/31 58/183/31 6/66/31
f 58/183/31 54/185/31 6/66/31
f 46/189/31 42/191/31 54/185/31
f 42/191/31 38/64/31 54/185/31
f 30/194/31 26/198/31 38/64/31
f 26/198/31 22/65/31 38/64/31
f 14/201/31 10/205/31 22/65/31
f 10/205/31 6/66/31 22/65/31
f 6/66/31 54/185/31 38/64/31
f 62/67/32 64/69/32 128/68/32
f 64/69/33 2/207/33 97/70/33
f 63/73/34 1/208/34 3/209/34
f 3/209/34 5/210/34 7/211/34
f 7/211/34 9/212/34 11/213/34
f 11/213/34 13/214/34 15/215/34
f 15/215/34 17/216/34 19/217/34
f 19/217/34 21/218/34 23/219/34
f 23/219/34 25/220/34 27/221/34
f 27/221/34 29/222/34 31/71/34
f 31/71/34 33/223/34 35/224/34
f 35/224/34 37/225/34 39/226/34
f 39/226/34 41/227/34 43/228/34
f 43/228/34 45/229/34 47/72/34
f 47/72/34 49/230/34 51/231/34
f 51/231/34 53/232/34 55/233/34
f 55/233/34 57/234/34 59/235/34
f 59/235/34 61/236/34 63/73/34
f 63/73/34 3/209/34 15/215/34
f 3/209/34 7/211/34 15/215/34
f 7/211/34 11/213/34 15/215/34
f 15/215/34 19/217/34 31/71/34
f 19/217/34 23/219/34 31/71/34
f 23/219/34 27/221/34 31/71/34
f 31/71/34 35/224/34 47/72/34
f 35/224/34 39/226/34 47/72/34
f 39/226/34 43/228/34 47/72/34
f 47/72/34 51/231/34 63/73/34
f 51/231/34 55/233/34 63/73/34
f 55/233/34 59/235/34 63/73/34
f 63/73/34 15/215/34 31/71/34
f 96/74/33 65/141/33 160/75/33
f 95/77/32 96/74/32 159/76/32
f 94/79/30 95/77/30 158/78/30
f 93/81/37 94/79/37 157/80/37
f 92/83/28 93/81/28 156/82/28
f 91/85/27 92/83/27 155/84/27
f 90/87/26 91/85/26 154/86/26
f 89/89/25 90/87/25 153/88/25
f 88/91/24 89/142/24 152/92/24
f 87/94/23 88/91/23 151/93/23
f 86/96/22 87/94/22 150/95/22
f 85/98/36 86/96/36 149/97/36
f 84/100/20 85/98/20 148/99/20
f 83/102/19 84/100/19 147/101/19
f 82/104/18 83/102/18 146/103/18
f 81/106/17 82/104/17 145/105/17
f 80/108/16 81/143/16 144/109/16
f 79/111/15 80/108/15 143/110/15
f 78/113/14 79/111/14 142/112/14
f 77/115/35 78/113/35 141/114/35
f 76/117/12 77/115/12 140/116/12
f 75/119/11 76/117/11 139/118/11
f 74/121/10 75/119/10 138/120/10
f 73/123/9 74/121/9 137/122/9
f 72/125/8 73/106/8 136/107/8
f 71/127/7 72/125/7 135/126/7
f 70/129/6 71/127/6 134/128/6
f 69/131/5 70/129/5 133/130/5
f 68/133/4 69/131/4 132/132/4
f 67/135/3 68/133/3 131/134/3
f 66/137/2 67/135/2 130/136/2
f 65/139/1 66/137/1 129/138/1
f 128/68/33 97/70/33 65/141/33
f 127/63/32 128/68/32 96/74/32
f 126/61/30 127/63/30 95/77/30
f 125/59/37 126/61/37 94/79/37
f 124/57/28 125/59/28 93/81/28
f 123/55/27 124/57/27 92/83/27
f 122/52/26 123/55/26 91/85/26
f 121/53/25 122/52/25 90/87/25
f 120/48/24 121/50/24 89/142/24
f 119/46/23 120/48/23 88/91/23
f 118/44/22 119/46/22 87/94/22
f 117/42/36 118/44/36 86/96/36
f 116/40/20 117/42/20 85/98/20
f 115/38/19 116/40/19 84/100/19
f 114/36/18 115/38/18 83/102/18
f 113/17/17 114/36/17 82/104/17
f 112/32/16 113/34/16 81/143/16
f 111/30/15 112/32/15 80/108/15
f 110/28/14 111/30/14 79/111/14
f 109/26/35 110/28/35 78/113/35
f 108/24/12 109/26/12 77/115/12
f 107/22/11 108/24/11 76/117/11
f 106/19/10 107/22/10 75/119/10
f 105/20/9 106/19/9 74/121/9
f 104/15/8 105/17/8 73/106/8
f 103/13/7 104/15/7 72/125/7
f 102/11/6 103/13/6 71/127/6
f 101/9/5 102/11/5 70/129/5
f 100/7/4 101/9/4 69/131/4
f 99/5/3 100/7/3 68/133/3
f 98/2/2 99/5/2 67/135/2
f 97/3/1 98/2/1 66/137/1
f 160/140/1 129/138/1 3/144/1
f 129/138/2 130/136/2 5/145/2
f 130/136/3 131/134/3 7/25/3
f 131/134/4 132/132/4 9/146/4
f 132/132/5 133/130/5 11/147/5
f 133/130/6 134/128/6 13/148/6
f 134/128/7 135/126/7 15/33/7
f 135/126/8 136/107/8 17/149/8
f 136/124/9 137/122/9 19/150/9
f 137/122/10 138/120/10 21/152/10
f 138/120/11 139/118/11 23/153/11
f 139/118/12 140/116/12 25/154/12
f 140/116/35 141/114/35 27/155/35
f 141/114/14 142/112/14 29/156/14
f 142/112/15 143/110/15 31/157/15
f 143/110/16 144/109/16 33/158/16
f 144/107/17 145/105/17 35/159/17
f 145/105/18 146/103/18 37/160/18
f 146/103/19 147/101/19 39/161/19
f 147/101/20 148/99/20 41/162/20
f 148/99/36 149/97/36 43/163/36
f 149/97/22 150/95/22 45/164/22
f 150/95/23 151/93/23 47/165/23
f 151/93/24 152/92/24 49/166/24
f 152/90/25 153/88/25 51/167/25
f 153/88/26 154/86/26 53/169/26
f 154/86/27 155/84/27 55/170/27
f 155/84/28 156/82/28 57/171/28
f 156/82/37 157/80/37 59/172/37
f 157/80/30 158/78/30 61/173/30
f 158/78/32 159/76/32 63/174/32
f 159/76/33 160/75/33 1/175/33
